<?xml version="1.0" encoding="UTF-8"?>
<svg id="_레이어_1" data-name="레이어 1" xmlns="http://www.w3.org/2000/svg" viewBox="0 0 300 300">
  <defs>
    <style>
      .cls-1 {
        fill: #010101;
      }

      .cls-2 {
        fill: #fefefe;
      }
    </style>
  </defs>
  <path class="cls-1" d="M98.71,19.36c40.39,0,80.56-.05,120.73.03,16.41.03,31.03,4.98,42.69,16.95,9.99,10.25,15.36,22.73,16.93,36.9,1.58,14.3-.8,27.84-8.19,40.26-8.98,15.09-22.51,23.69-39.6,26.97-1.08.21-2.17.4-3.59.66.71.77,1.23,1.36,1.79,1.91,11.24,11.25,22.43,22.54,33.75,33.71,13.1,12.93,18.71,28.68,16.86,46.77-2.15,20.97-11.99,37.63-30.05,48.97-8.44,5.3-17.83,7.33-27.74,8.09-17.67,1.35-31.9-6.04-44.4-17.22-10.16-9.09-19.54-19.05-29.22-28.67-2.32-2.31-4.49-4.78-6.85-7.31-1.57,5.4-2.64,10.29-4.39,14.92-6.36,16.75-18.32,27.99-35.21,33.57-18.82,6.22-37.25,4.62-54.47-5.38-17.05-9.9-26.01-25.19-27.83-44.73-.25-2.68-.26-5.4-.26-8.1-.02-45.72-.01-91.45-.03-137.17-.01-27.99,18.73-52.37,45.99-59.08,5.97-1.47,12.3-1.6,18.49-1.99,4.79-.31,9.61-.06,14.64-.06M94.63,60.94c-.38-.24-.75-.49-1.13-.73-8-5.04-16.29-5.43-24.51-.86-7.94,4.41-12.46,11.48-12.49,20.53-.17,46.85-.1,93.69-.05,140.54,0,4.26,1.04,8.35,3.46,11.93,5.53,8.16,13.57,10.9,23.01,10.41,12.86-.68,21.8-10.3,21.79-23.14-.04-45.95-.1-91.89.03-137.84.02-8.65-3.13-15.39-10.1-20.83M147.59,141.45h-6v2.65c0,9.68.04,19.37-.04,29.05-.01,1.71.5,2.9,1.7,4.1,19.76,19.7,39.48,39.44,59.21,59.17,8.38,8.38,18.91,9.74,28.86,3.41,12.45-7.91,18.25-25.03,4.69-38.24-19.77-19.27-39.14-38.95-58.64-58.5-1.21-1.22-2.42-1.69-4.12-1.68-8.41.08-16.81.04-25.67.04M141.56,100.14v4.32h2.71c25,0,50.01-.03,75.01.02,12.75.02,21.58-7.31,23.36-19.95,2.14-15.14-7.1-28.58-24.13-28.34-26.28.37-52.56.1-78.84.1h-2.04c1.18,6.05,2.87,11.85,3.33,17.76.66,8.51.44,17.1.59,26.09"/>
  <path class="cls-2" d="M94.76,61.04c6.84,5.34,9.99,12.09,9.97,20.74-.13,45.95-.07,91.89-.03,137.84.01,12.85-8.93,22.47-21.79,23.15-9.44.5-17.48-2.25-23.01-10.41-2.43-3.58-3.46-7.67-3.46-11.93-.04-46.85-.12-93.69.05-140.54.03-9.05,4.55-16.12,12.49-20.53,8.23-4.57,16.51-4.18,24.51.86.38.24.76.49,1.27.83M147.82,141.45c8.63,0,17.04.04,25.45-.04,1.7-.02,2.9.46,4.12,1.68,19.5,19.55,38.87,39.23,58.64,58.5,13.56,13.21,7.76,30.34-4.69,38.24-9.95,6.32-20.49,4.96-28.86-3.41-19.73-19.73-39.45-39.47-59.22-59.17-1.2-1.2-1.72-2.39-1.7-4.1.08-9.68.04-19.37.04-29.05v-2.65h6.23ZM141.56,99.91c-.15-8.78.07-17.36-.59-25.87-.46-5.9-2.15-11.71-3.33-17.76h2.04c26.28,0,52.56.27,78.84-.1,17.03-.24,26.26,13.2,24.13,28.34-1.78,12.64-10.61,19.97-23.36,19.95-25-.05-50.01-.02-75.01-.02h-2.71v-4.54Z"/>
</svg>