<?xml version="1.0" encoding="UTF-8"?>
<svg id="_레이어_1" data-name=" 레이어 1" xmlns="http://www.w3.org/2000/svg" viewBox="0 0 300 300">
  <defs>
    <style>
      .cls-1 {
        fill: #010101;
      }
    </style>
  </defs>
  <path class="cls-1" d="M263.19,176.75c-11.32-11.17-22.51-22.46-33.75-33.71-.56-.55-1.08-1.14-1.79-1.91,1.42-.26,2.51-.45,3.59-.66,17.09-3.28,30.62-11.88,39.6-26.97,7.39-12.42,9.77-25.96,8.19-40.26-1.57-14.17-6.94-26.65-16.93-36.9-11.66-11.97-26.28-16.92-42.69-16.95-40.16-.08-80.31-.03-120.69-.03h0-.04.04c-5.03,0-9.85-.25-14.64.06-6.19.39-12.52.52-18.49,1.99-27.26,6.71-46,31.09-45.99,59.08.02,45.72.01,91.45.03,137.17,0,2.7,0,5.42.26,8.1,1.82,19.54,10.78,34.83,27.83,44.73,17.22,10,35.65,11.6,54.47,5.38,16.89-5.58,28.85-16.82,35.21-33.57,1.75-4.63,2.82-9.52,4.39-14.92,2.36,2.53,4.53,5,6.85,7.31,9.68,9.62,19.06,19.58,29.22,28.67,12.5,11.18,26.73,18.57,44.4,17.22,9.91-.76,19.3-2.79,27.74-8.09,18.06-11.34,27.9-28,30.05-48.97,1.85-18.09-3.76-33.84-16.86-46.77ZM104.68,219.62c.01,12.84-8.93,22.46-21.79,23.14-9.44.49-17.48-2.25-23.01-10.41-2.42-3.58-3.46-7.67-3.46-11.93-.05-46.85-.12-93.69.05-140.54.03-9.05,4.55-16.12,12.49-20.53,8.22-4.57,16.51-4.18,24.51.86.38.24.75.49,1.13.73h.01c6.97,5.45,10.12,12.19,10.1,20.84-.13,45.95-.07,91.89-.03,137.84ZM137.6,56.29h2.04c26.28,0,52.56.27,78.84-.1,17.03-.24,26.27,13.2,24.13,28.34-1.78,12.64-10.61,19.97-23.36,19.95-25-.05-50.01-.02-75.01-.02h-2.71v-4.32h-.01c-.15-8.99.07-17.58-.59-26.09-.46-5.91-2.15-11.71-3.33-17.76ZM231.29,239.83c-9.95,6.33-20.48,4.97-28.86-3.41-19.73-19.73-39.45-39.47-59.21-59.17-1.2-1.2-1.71-2.39-1.7-4.1.08-9.68.04-19.37.04-29.05v-2.65h5.99c8.86,0,17.26.04,25.67-.04,1.7-.01,2.91.46,4.12,1.68,19.5,19.55,38.87,39.23,58.64,58.5,13.56,13.21,7.76,30.33-4.69,38.24Z"/>
</svg>