<?xml version="1.0" encoding="UTF-8"?>
<svg id="_레이어_1" data-name=" 레이어 1" xmlns="http://www.w3.org/2000/svg" viewBox="0 0 300 300">
  <defs>
    <style>
      .cls-1 {
        fill: none;
        stroke: #fff;
        stroke-linecap: round;
        stroke-linejoin: round;
        stroke-width: 6.49px;
      }
    </style>
  </defs>
  <path class="cls-1" d="M27.42,251.76c7.21,0,18.03-15.14,30.64-17.31,7.21,0,12.62,15.14,30.64,17.31,12.62,0,18.03-15.14,30.64-15.14s18.03,15.14,30.64,15.14,18.03-15.14,30.64-15.14,18.03,15.14,30.64,15.14,18.03-15.14,30.64-15.14,18.03,15.14,30.64,15.14"/>
  <path class="cls-1" d="M52.08,236.69l-8.26-15.79,212.71-13.7c-16.73,15.21-38.22,27.54-59.96,37.64M128.51,73.8c36.2,11.07,86.81,64.53,104.05,122-9.45-3.71-16.51-7.5-29.78-4.11-12.83-46.69-35.8-91.29-74.27-117.89M61.2,48.24c46.36,19.83,109.96,75.03,121.64,148.54-53.47-21.56-94.17-10.06-122.51,7.43,43.23-54.94,23.83-117.42.87-155.96"/>
</svg>