<?xml version="1.0" encoding="UTF-8"?>
<svg id="_레이어_1" data-name="레이어 1" xmlns="http://www.w3.org/2000/svg" viewBox="0 0 300 300">
  <defs>
    <style>
      .cls-1 {
        fill: #300204;
      }

      .cls-2 {
        fill: #eb8f12;
      }
    </style>
  </defs>
  <rect class="cls-1" width="300" height="300" rx="43.61" ry="43.61"/>
  <g>
    <path class="cls-2" d="M100.16,185.79l-11.07,37.08h-34.66l46.59-139.29h44.16l48.78,139.29h-36.45l-12.3-37.08h-45.05ZM139.79,161.51l-10.03-29.75c-2.74-8.16-5.42-17.41-7.81-25.21h-.4c-2.24,7.84-4.34,17.14-6.83,25.24l-9.42,29.72h34.5Z"/>
    <path class="cls-2" d="M245.58,93.19c0,8.78-6.56,16.05-17.8,16.05s-17.35-7.27-17.35-16.05,6.65-16.06,17.6-16.06,17.38,7.07,17.55,16.06ZM211.45,222.87v-101.15h32.93v101.15h-32.93Z"/>
  </g>
</svg>