<?xml version="1.0" encoding="UTF-8"?>
<svg id="_레이어_1" data-name="레이어 1" xmlns="http://www.w3.org/2000/svg" viewBox="0 0 300 300">
  <defs>
    <style>
      .cls-1 {
        fill: #ffcd00;
      }
    </style>
  </defs>
  <path class="cls-1" d="M27.68,160.94l24.77,30.13,7.3-5.58-20.99-25.04,18.15-22.61-7.39-5.27-21.84,28.37ZM24.3,108.93l-9.41,2.03v78.68h9.41v-80.71Z"/>
  <path class="cls-1" d="M68.08,174.68c0-5.63,1.89-9.91,5.67-12.88,3.78-2.97,9.32-4.41,16.53-4.41h10.85v-3.56c0-8.6-3.83-12.93-11.48-12.93-2.43,0-5.04.36-7.75,1.04s-5.18,1.53-7.43,2.52l-2.75-6.62c2.79-1.58,5.81-2.75,9.05-3.6s6.4-1.26,9.46-1.26c13.24,0,19.86,7.03,19.86,21.08v35.62h-6.98l-1.13-6.13c-2.79,2.25-5.76,3.96-8.96,5.18-3.15,1.22-6.22,1.85-9.05,1.85-5,0-8.87-1.4-11.71-4.23-2.75-2.84-4.19-6.71-4.19-11.66M85.78,183.01c1.31,0,2.61-.18,4.01-.5,1.4-.32,2.79-.77,4.19-1.31s2.7-1.22,3.92-1.98,2.3-1.62,3.29-2.48v-13.02h-9.77c-4.95,0-8.56.86-10.85,2.57-2.25,1.71-3.42,4.37-3.42,8.06-.05,5.76,2.84,8.65,8.65,8.65M136.35,189.63h-9.41v-78.68l9.41-2.03v80.71ZM161.53,132.53l7.39,5.27-18.1,22.61,20.99,25.04-7.25,5.58-24.77-30.13,21.75-28.37ZM180.13,174.68c0-5.63,1.89-9.91,5.67-12.88s9.32-4.41,16.53-4.41h10.85v-3.56c0-8.6-3.83-12.93-11.48-12.93-2.48,0-5.04.36-7.75,1.04s-5.18,1.53-7.43,2.52l-2.75-6.62c2.79-1.58,5.81-2.75,9.05-3.6s6.4-1.26,9.46-1.26c13.24,0,19.86,7.03,19.86,21.08v35.62h-6.98l-1.13-6.13c-2.79,2.25-5.76,3.96-8.96,5.18-3.15,1.22-6.22,1.85-9.05,1.85-5,0-8.87-1.4-11.71-4.23-2.79-2.84-4.19-6.71-4.19-11.66M197.83,183.01c1.31,0,2.61-.18,4.01-.5,1.4-.32,2.79-.77,4.19-1.31,1.4-.54,2.7-1.22,3.92-1.98s2.3-1.62,3.24-2.48v-13.02h-9.77c-4.95,0-8.6.86-10.85,2.57-2.3,1.71-3.42,4.37-3.42,8.06,0,5.76,2.88,8.65,8.69,8.65M260.12,133.07c7.79,0,13.92,2.52,18.33,7.52,4.46,5.04,6.67,12.2,6.67,21.57s-2.21,16.3-6.62,21.26c-4.41,4.95-10.54,7.43-18.38,7.43s-13.92-2.48-18.33-7.43c-4.46-4.95-6.67-12.02-6.67-21.26s2.25-16.57,6.71-21.57c4.46-5,10.58-7.52,18.28-7.52M260.12,140.59c-4.91,0-8.69,1.85-11.3,5.49-2.61,3.65-3.96,9.01-3.96,16.08s1.31,12.25,3.96,15.81c2.61,3.56,6.4,5.36,11.3,5.36s8.78-1.8,11.44-5.36c2.61-3.56,3.92-8.83,3.92-15.81s-1.31-12.43-3.92-16.08c-2.66-3.65-6.44-5.49-11.44-5.49"/>
</svg>