<?xml version="1.0" encoding="UTF-8"?>
<svg id="_레이어_1" data-name="레이어 1" xmlns="http://www.w3.org/2000/svg" viewBox="0 0 300 300">
  <defs>
    <style>
      .cls-1 {
        fill: #041d34;
      }

      .cls-2 {
        fill: #00b5ed;
      }
    </style>
  </defs>
  <rect class="cls-1" width="300" height="300" rx="43.61" ry="43.61"/>
  <g>
    <path class="cls-2" d="M47.69,76.36c10.62-1.73,25.78-3.24,48.44-3.24,20.91,0,35.68,4.54,45.33,12.28,9.38,7.28,16.12,19.87,16.12,35.24,0,14.17-4.49,27.02-13.36,35.27-11.76,11.19-28.9,16.39-50.27,16.39-5.07,0-9.56-.4-12.82-.99v52.9h-33.44V76.36ZM81.13,144.23c3.09.77,7.04,1.09,12.75,1.09,18.2,0,30.25-8.65,30.25-24.22,0-14.03-10.3-21.52-27.72-21.52-7.63,0-12.72.58-15.28,1.12v43.53Z"/>
    <path class="cls-2" d="M174.04,193.65c6.48,4.18,20.44,8.88,30.6,8.88s14.78-3.47,14.78-8.75c0-5.6-3.37-8.1-16.26-11.86-23.11-6.57-32.55-19.2-32.39-32.92,0-20.72,17.46-36.21,44.84-36.21,13.31,0,25.34,3.24,31.93,6.76l-5.86,23.96c-4.9-2.62-15.32-6.71-25.14-6.71-8.13,0-13.05,2.93-13.05,8.59,0,5.34,4.68,8.08,18.39,12.19,21.15,6.32,30.26,16.69,30.43,33.73,0,19.61-15.06,35.57-47.51,35.57-15.16,0-27.95-3.46-36.92-8.13l6.16-25.1Z"/>
  </g>
</svg>