<?xml version="1.0" encoding="UTF-8"?>
<svg id="_레이어_1" data-name="레이어 1" xmlns="http://www.w3.org/2000/svg" xmlns:xlink="http://www.w3.org/1999/xlink" viewBox="0 0 331.52 300">
  <defs>
    <style>
      .cls-1 {
        fill: none;
      }

      .cls-2 {
        fill: url(#_무제_그라디언트_31);
        fill-opacity: .5;
      }

      .cls-3 {
        fill: url(#_무제_그라디언트_28);
        fill-opacity: .8;
      }

      .cls-4 {
        fill: url(#_무제_그라디언트_24);
        fill-opacity: .3;
      }

      .cls-5 {
        fill: #fff;
      }

      .cls-6 {
        fill: url(#_무제_그라디언트_29);
      }

      .cls-7 {
        fill: url(#_무제_그라디언트_27);
      }

      .cls-8 {
        fill: url(#_무제_그라디언트_26);
      }

      .cls-9 {
        fill: url(#_무제_그라디언트_25);
      }

      .cls-10 {
        fill: url(#_무제_그라디언트_32);
      }

      .cls-11 {
        fill: url(#_무제_그라디언트_33);
      }

      .cls-12 {
        fill: url(#_무제_그라디언트_30);
      }

      .cls-13 {
        clip-path: url(#clippath);
      }
    </style>
    <clipPath id="clippath">
      <ellipse class="cls-1" cx="170.76" cy="150" rx="149.98" ry="150"/>
    </clipPath>
    <linearGradient id="_무제_그라디언트_33" data-name="무제 그라디언트 33" x1="242.51" y1="-157.71" x2="58.74" y2="-333.53" gradientTransform="translate(0 -76.36) scale(1 -1)" gradientUnits="userSpaceOnUse">
      <stop offset=".06" stop-color="#ff7f48"/>
      <stop offset="1" stop-color="#e5495b"/>
    </linearGradient>
    <radialGradient id="_무제_그라디언트_32" data-name="무제 그라디언트 32" cx="-1580.68" cy="370.92" fx="-1580.68" fy="370.92" r="8" gradientTransform="translate(-58464.921 25545.1025) rotate(135) scale(37.6453 -63.3621)" gradientUnits="userSpaceOnUse">
      <stop offset=".15" stop-color="#aa1d2d"/>
      <stop offset=".38" stop-color="#d12b18" stop-opacity=".44"/>
      <stop offset=".6" stop-color="#ff3c00" stop-opacity="0"/>
    </radialGradient>
    <radialGradient id="_무제_그라디언트_31" data-name="무제 그라디언트 31" cx="-1526.12" cy="326.58" fx="-1526.12" fy="326.58" r="7.99" gradientTransform="translate(58229.7847 -3897.1856) rotate(-25.2832) scale(35.6859 -64.6502)" gradientUnits="userSpaceOnUse">
      <stop offset=".41" stop-color="#ff66fb"/>
      <stop offset="1" stop-color="#ea3d01" stop-opacity="0"/>
    </radialGradient>
    <linearGradient id="_무제_그라디언트_30" data-name="무제 그라디언트 30" x1="169.8" y1="-220.11" x2="331.24" y2="-100.46" gradientTransform="translate(0 -76.36) scale(1 -1)" gradientUnits="userSpaceOnUse">
      <stop offset=".31" stop-color="#ff6e30"/>
      <stop offset=".64" stop-color="#ffa05c"/>
    </linearGradient>
    <radialGradient id="_무제_그라디언트_29" data-name="무제 그라디언트 29" cx="-1484.29" cy="336.86" fx="-1484.29" fy="336.86" r="8" gradientTransform="translate(33762.1085 15165.6322) rotate(11.835) scale(24.2391 -23.1082)" gradientUnits="userSpaceOnUse">
      <stop offset=".79" stop-color="#ffa05c" stop-opacity="0"/>
      <stop offset=".91" stop-color="#ffce84"/>
    </radialGradient>
    <radialGradient id="_무제_그라디언트_28" data-name="무제 그라디언트 28" cx="-1510.78" cy="286.33" fx="-1510.78" fy="286.33" r="8" gradientTransform="translate(34787.366 -14490.3906) rotate(-33.198) scale(24.4755 -23.4062)" gradientUnits="userSpaceOnUse">
      <stop offset=".29" stop-color="#ff99e9"/>
      <stop offset=".73" stop-color="#ff99e9" stop-opacity="0"/>
    </radialGradient>
    <radialGradient id="_무제_그라디언트_27" data-name="무제 그라디언트 27" cx="-1530.69" cy="276.72" fx="-1530.69" fy="276.72" r="8" gradientTransform="translate(31354.4234 -25538.8881) rotate(-48.864) scale(26.059 -23.7991)" gradientUnits="userSpaceOnUse">
      <stop offset="0" stop-color="#fd6ef9"/>
      <stop offset=".64" stop-color="#f94"/>
      <stop offset=".85" stop-color="#fcc479"/>
    </radialGradient>
    <radialGradient id="_무제_그라디언트_26" data-name="무제 그라디언트 26" cx="-1543.04" cy="403.29" fx="-1543.04" fy="403.29" r="8" gradientTransform="translate(-14806.7614 18501.5413) rotate(98.3949) scale(13.2634 -29.9755)" gradientUnits="userSpaceOnUse">
      <stop offset=".14" stop-color="#ff8d13"/>
      <stop offset=".54" stop-color="#ff7f29" stop-opacity="0"/>
    </radialGradient>
    <radialGradient id="_무제_그라디언트_25" data-name="무제 그라디언트 25" cx="-1491.19" cy="377.78" fx="-1491.19" fy="377.78" r="8" gradientTransform="translate(17825.3259 30045.3944) rotate(45) scale(22.6274 -22.6274)" gradientUnits="userSpaceOnUse">
      <stop offset="0" stop-color="#f8193e"/>
      <stop offset=".94" stop-color="#920616"/>
    </radialGradient>
    <radialGradient id="_무제_그라디언트_24" data-name="무제 그라디언트 24" cx="-1502.65" cy="472.86" fx="-1502.65" fy="472.86" r="8" gradientTransform="translate(-5954.192 17048.4381) rotate(90) scale(11.2 -12.75)" gradientUnits="userSpaceOnUse">
      <stop offset=".58" stop-color="#ffb055" stop-opacity="0"/>
      <stop offset=".97" stop-color="#fff2be"/>
    </radialGradient>
  </defs>
  <g class="cls-13">
    <g>
      <circle class="cls-11" cx="170.76" cy="150" r="156"/>
      <circle class="cls-10" cx="170.76" cy="150" r="156"/>
      <circle class="cls-2" cx="170.76" cy="150" r="156"/>
      <path class="cls-12" d="M170.78,0c82.83,0,149.98,67.16,149.98,150,0,27.56-7.44,53.37-20.42,75.56l2.44-5.4c14.84-32.96-9.28-70.25-45.43-70.22l-59.7.05c-14.84,0-26.87-12.02-26.88-26.86v-59.81c0-36.16-37.34-60.26-70.29-45.36l-4.8,2.16C118.51,6.9,144.42-.04,170.78,0"/>
      <path class="cls-6" d="M170.78,0c82.83,0,149.98,67.16,149.98,150,0,27.56-7.44,53.37-20.42,75.56l2.44-5.4c14.84-32.96-9.28-70.25-45.43-70.22l-59.7.05c-14.84,0-26.87-12.02-26.88-26.86v-59.81c0-36.16-37.34-60.26-70.29-45.36l-4.8,2.16C118.51,6.9,144.42-.04,170.78,0"/>
      <path class="cls-3" d="M170.78,0c82.83,0,149.98,67.16,149.98,150,0,27.56-7.44,53.37-20.42,75.56l2.44-5.4c14.84-32.96-9.28-70.25-45.43-70.22l-59.7.05c-14.84,0-26.87-12.02-26.88-26.86v-59.81c0-36.16-37.34-60.26-70.29-45.36l-4.8,2.16C118.51,6.9,144.42-.04,170.78,0"/>
      <path class="cls-7" d="M170.78,0c82.83,0,149.98,67.16,149.98,150,0,27.56-7.44,53.37-20.42,75.56l2.44-5.4c14.84-32.96-9.28-70.25-45.43-70.22l-59.7.05c-14.84,0-26.87-12.02-26.88-26.86v-59.81c0-36.16-37.34-60.26-70.29-45.36l-4.8,2.16C118.51,6.9,144.42-.04,170.78,0"/>
      <path class="cls-8" d="M170.78,0c82.83,0,149.98,67.16,149.98,150,0,27.56-7.44,53.37-20.42,75.56l2.44-5.4c14.84-32.96-9.28-70.25-45.43-70.22l-59.7.05c-14.84,0-26.87-12.02-26.88-26.86v-59.81c0-36.16-37.34-60.26-70.29-45.36l-4.8,2.16C118.51,6.9,144.42-.04,170.78,0"/>
    </g>
  </g>
  <rect class="cls-9" x="10.78" y="142" width="128" height="128" rx="26" ry="26"/>
  <rect class="cls-4" x="10.78" y="142" width="128" height="128" rx="26" ry="26"/>
  <path class="cls-5" d="M68.54,218.75v23.82h-16.48v-73.13h25.44c9.11,0,16.04,1.99,20.8,5.96,4.8,3.98,7.2,9.88,7.19,17.7,0,8.05-2.69,14.34-8.06,18.87-5.33,4.52-12.51,6.78-21.52,6.78h-7.38ZM68.54,182.08v24.02h6.88c4.08,0,7.22-1.07,9.43-3.22,2.21-2.14,3.31-5.22,3.31-9.23,0-3.7-1.09-6.56-3.26-8.57-2.14-2.01-5.22-3.01-9.22-3.01h-7.14Z"/>
</svg>