<?xml version="1.0" encoding="UTF-8"?>
<svg id="_레이어_1" data-name="레이어 1" xmlns="http://www.w3.org/2000/svg" viewBox="0 0 300 300">
  <defs>
    <style>
      .cls-1 {
        fill: #182448;
      }

      .cls-2 {
        fill: #9194c8;
      }
    </style>
  </defs>
  <path class="cls-1" d="M300,43.65v212.69c0,24.11-19.5,43.65-43.56,43.65H43.56c-24.06,0-43.56-19.54-43.56-43.65V43.65C0,19.54,19.5,0,43.56,0h212.88c7.78,0,15.09,2.05,21.41,5.63,4.22,2.39,8,5.46,11.19,9.07,1.25,1.4,2.41,2.9,3.46,4.46,4.73,6.99,7.5,15.41,7.5,24.49Z"/>
  <g>
    <path class="cls-2" d="M145.51,88.28c-9.87-7.56-24.98-11.99-46.37-11.99-23.2,0-38.7,1.48-49.57,3.18v144.24h34.22v-51.61c3.34.58,7.92.97,13.11.97,10.57,0,20.13-1.19,28.54-3.65,8.98-2.62,16.67-6.71,22.88-12.35,7.28-6.45,11.68-15.79,13.14-26.35.37-2.62.54-5.3.54-8.05,0-15-6.9-27.28-16.5-34.38ZM96.84,146.74c-5.84,0-9.89-.31-13.05-1.07v-42.47c2.62-.52,7.82-1.09,15.64-1.09,17.81,0,28.35,7.31,28.35,20.99,0,15.2-12.32,23.63-30.94,23.63Z"/>
    <path class="cls-2" d="M243.05,115c-11.11,0-25.47,6.69-31.19,23.6h-.81l-1.11-21h-29.6c.65,8.88.88,18.74.88,35.99v70.11h34.55v-53.62c0-2.1.09-4.26.4-6.26,1.92-10.13,10.26-17.31,24.43-17.31,4.09,0,7.03.51,9.83,1.12v-31.98c-2.72-.61-4.27-.65-7.38-.65Z"/>
  </g>
</svg>